<?xml version="1.0" standalone="no"?>
<!DOCTYPE svg PUBLIC "-//W3C//DTD SVG 20010904//EN"
 "http://www.w3.org/TR/2001/REC-SVG-20010904/DTD/svg10.dtd">
<svg version="1.0" xmlns="http://www.w3.org/2000/svg"
 width="497.000000pt" height="510.000000pt" viewBox="0 0 497.000000 510.000000"
 preserveAspectRatio="xMidYMid meet">

<g transform="translate(0.000000,510.000000) scale(0.100000,-0.100000)"
fill="#000000" stroke="none">
<path d="M4140 4939 c-135 -88 -248 -164 -251 -167 -4 -4 2 -26 12 -50 l18
-43 120 81 c66 44 124 80 128 80 4 0 7 -1053 7 -2339 l-1 -2339 108 -70 108
-70 25 39 26 39 -85 56 -85 57 0 2348 0 2349 84 56 85 56 -26 39 c-14 21 -26
39 -27 39 0 0 -111 -73 -246 -161z"/>
<path d="M3698 4867 c-16 -6 -28 -16 -28 -21 0 -6 101 -265 225 -576 l225
-565 0 127 0 127 -182 461 c-131 329 -187 460 -198 459 -8 -1 -27 -6 -42 -12z"/>
<path d="M3568 4780 c-14 -21 -121 -173 -237 -338 l-211 -300 245 -619 c135
-340 250 -628 255 -641 l10 -23 29 20 c16 12 33 21 38 21 6 0 37 -18 70 -39
l61 -39 -5 -45 -5 -44 38 -10 c36 -9 43 -7 86 24 53 38 47 42 87 -58 18 -47
26 -56 42 -52 32 9 32 21 -2 104 l-32 81 29 24 c16 13 35 21 42 19 9 -3 12 66
12 325 l0 328 -256 644 c-140 354 -258 646 -262 650 -4 3 -19 -11 -34 -32z
m196 -1516 c24 -23 19 -34 -14 -34 -22 0 -30 5 -30 18 0 34 19 41 44 16z m166
-168 c0 -31 -9 -37 -31 -23 -23 14 -24 21 -3 41 19 20 34 12 34 -18z m155 -36
c10 -16 -15 -60 -34 -60 -21 0 -36 47 -20 66 10 12 45 8 54 -6z m-114 -122
c10 -18 8 -24 -7 -35 -15 -11 -20 -10 -36 4 -10 9 -18 24 -18 35 0 27 46 24
61 -4z"/>
<path d="M3010 4281 c-38 -20 -67 -62 -70 -101 -4 -54 0 -82 12 -78 8 3 12 20
10 44 -3 51 27 101 74 120 19 8 32 19 29 24 -9 14 -15 13 -55 -9z"/>
<path d="M3035 4215 c-19 -19 -25 -35 -25 -70 0 -33 4 -45 13 -42 7 2 11 16 9
36 -3 25 3 38 27 60 17 16 31 32 31 35 0 15 -33 4 -55 -19z"/>
<path d="M1586 3749 c-142 -33 -255 -152 -287 -300 -30 -139 39 -215 178 -194
63 9 202 59 296 106 89 45 189 69 288 69 85 0 86 9 9 63 -29 20 -60 52 -69 70
-8 17 -38 55 -66 82 -93 94 -224 133 -349 104z"/>
<path d="M2555 3490 c-3 -6 -3 -19 0 -31 5 -16 10 -18 21 -8 18 15 18 49 0 49
-8 0 -18 -5 -21 -10z"/>
<path d="M1940 3375 c-96 -19 -140 -43 -140 -75 0 -44 65 -90 127 -90 39 0 92
30 108 61 8 15 15 48 15 74 0 52 0 52 -110 30z"/>
<path d="M1698 3278 c-30 -13 -48 -27 -48 -37 0 -20 74 -167 115 -229 34 -51
51 -51 131 3 64 44 106 101 129 173 7 23 7 23 -26 7 -46 -24 -135 -17 -178 14
-18 13 -40 39 -47 57 -8 19 -18 34 -22 34 -4 -1 -28 -10 -54 -22z"/>
<path d="M3084 3286 c-8 -21 3 -36 27 -36 25 0 25 26 -1 40 -16 9 -22 8 -26
-4z"/>
<path d="M2798 3244 c-3 -3 -4 -13 -1 -23 3 -13 11 -17 29 -13 20 3 22 7 13
23 -9 18 -30 25 -41 13z"/>
<path d="M1540 3224 c-25 -7 -71 -13 -102 -13 l-57 -1 16 -47 c23 -68 121
-164 188 -186 62 -20 155 -33 155 -21 0 5 -11 26 -24 45 -28 41 -100 183 -111
217 -3 12 -9 21 -13 21 -4 -1 -27 -7 -52 -15z"/>
<path d="M1125 3184 c-95 -28 -105 -34 -105 -64 0 -45 22 -56 83 -40 92 22
117 36 117 64 0 23 -23 57 -38 55 -4 0 -29 -7 -57 -15z"/>
<path d="M2601 3132 c-8 -16 -6 -21 15 -31 24 -11 25 -10 22 16 -4 33 -23 41
-37 15z"/>
<path d="M3285 3096 c-19 -14 -19 -15 -1 -35 23 -25 42 -27 50 -6 5 15 -12 55
-24 55 -4 0 -15 -6 -25 -14z"/>
<path d="M1188 3043 c-22 -6 -22 -1 3 -85 18 -58 21 -86 16 -157 -3 -47 -9
-95 -12 -106 -6 -19 2 -22 111 -42 65 -12 121 -20 125 -18 4 3 10 22 14 42 4
22 20 52 37 70 l31 32 -55 128 c-50 115 -58 129 -84 134 -34 8 -161 9 -186 2z"/>
<path d="M1065 3021 c-134 -48 -301 -155 -436 -280 -73 -68 -74 -69 -74 -119
0 -60 28 -97 84 -112 20 -5 232 -46 472 -90 414 -77 439 -80 472 -66 20 8 44
27 54 42 35 55 12 140 -45 163 -28 12 -601 121 -633 121 -36 0 -18 20 58 65
96 56 107 57 99 9 -4 -19 -10 -42 -13 -50 -3 -8 1 -14 10 -14 9 0 22 -3 30 -6
20 -7 42 109 34 178 -7 57 -45 178 -55 177 -4 0 -29 -8 -57 -18z"/>
<path d="M3150 2996 c0 -19 4 -22 25 -18 28 5 31 12 13 30 -19 19 -38 14 -38
-12z"/>
<path d="M1460 2995 c0 -3 12 -34 26 -68 15 -34 33 -77 41 -95 l14 -33 66 58
65 58 -56 16 c-30 9 -76 29 -100 43 -45 26 -56 30 -56 21z"/>
<path d="M1972 2988 c-32 -32 -12 -60 101 -147 27 -21 67 0 67 37 0 22 -12 37
-61 75 -64 48 -86 56 -107 35z"/>
<path d="M2925 2980 c-4 -6 -1 -17 5 -26 14 -16 40 -2 40 22 0 16 -36 19 -45
4z"/>
<path d="M2256 2973 c-3 -3 -6 -15 -6 -25 0 -13 7 -18 25 -18 15 0 25 6 25 15
0 16 -34 38 -44 28z"/>
<path d="M3291 2932 c-13 -25 2 -41 35 -34 15 3 24 11 24 23 0 11 -4 19 -9 19
-5 0 -16 3 -24 6 -9 3 -20 -2 -26 -14z"/>
<path d="M1769 2926 c-37 -9 -69 -31 -156 -108 -132 -116 -130 -114 -138 -159
l-7 -37 64 -11 c104 -18 160 -77 157 -166 -1 -27 2 -67 6 -87 6 -32 10 -37 29
-33 11 3 48 11 81 18 59 13 60 14 69 55 9 41 8 43 -30 76 l-39 33 14 64 c17
85 50 151 112 228 58 71 60 65 -36 112 -66 32 -61 31 -126 15z"/>
<path d="M1936 2749 c-48 -64 -91 -178 -84 -221 4 -18 7 -12 17 25 8 26 17 47
21 47 4 0 67 -39 139 -86 121 -80 134 -86 169 -81 78 13 547 120 556 128 5 4
2 43 -8 91 -9 46 -17 93 -18 105 -3 21 -7 20 -238 -37 -129 -33 -242 -59 -250
-60 -8 0 -67 34 -130 75 -63 41 -118 75 -122 75 -3 0 -27 -27 -52 -61z"/>
<path d="M2786 2774 c-20 -19 -21 -5 9 -136 14 -61 25 -112 23 -113 -10 -9
-1134 -255 -1145 -251 -7 3 -13 14 -13 25 0 45 -9 51 -43 30 -25 -15 -32 -26
-32 -51 l0 -31 -150 -34 c-82 -19 -151 -36 -153 -38 -6 -5 49 -258 58 -268 6
-7 450 90 1750 383 420 94 377 89 385 46 4 -20 11 -38 15 -41 9 -6 128 20 138
29 3 3 -17 105 -44 226 -55 246 -43 229 -139 206 l-50 -12 3 -45 3 -45 -248
-56 c-144 -32 -251 -52 -254 -46 -3 5 -16 55 -29 111 -12 56 -27 108 -32 115
-14 16 -33 15 -52 -4z m132 -342 c-2 -22 -8 -27 -32 -27 -17 0 -33 7 -40 18
-9 15 -7 22 12 37 32 26 65 11 60 -28z m-1244 -248 c20 -8 21 -48 1 -64 -23
-19 -55 -3 -55 30 0 34 21 47 54 34z"/>
<path d="M2908 2708 c18 -83 20 -88 32 -68 16 25 11 73 -10 108 -31 51 -39 38
-22 -40z"/>
<path d="M3676 2755 c-9 -24 1 -35 30 -35 21 0 25 4 22 23 -4 27 -42 36 -52
12z"/>
<path d="M386 2720 c-14 -17 -28 -46 -32 -65 -7 -38 9 -97 32 -116 23 -19 28
-3 10 35 -24 50 -20 88 14 134 36 50 16 59 -24 12z"/>
<path d="M452 2697 c-26 -31 -32 -67 -17 -102 7 -19 21 -35 29 -35 14 0 14 4
-1 36 -16 34 -16 37 0 66 9 16 17 34 17 39 0 13 -16 11 -28 -4z"/>
<path d="M3803 2447 c-27 -12 -29 -29 -7 -47 12 -11 18 -10 35 6 16 16 17 23
7 36 -10 13 -18 14 -35 5z"/>
<path d="M962 2263 c-29 -75 -50 -138 -47 -141 6 -7 329 -61 333 -57 3 2 -3
35 -11 72 -9 37 -12 71 -9 74 4 3 32 11 63 18 56 12 56 12 67 59 6 26 10 47 9
48 -4 2 -334 64 -344 64 -5 0 -33 -62 -61 -137z m158 10 c0 -5 -6 -30 -14 -58
-10 -40 -16 -49 -32 -47 -10 2 -20 5 -21 5 0 1 4 26 9 55 9 45 14 52 34 52 13
0 24 -3 24 -7z m92 -18 c9 -9 -16 -108 -27 -112 -6 -1 -16 1 -23 5 -19 13 6
112 28 112 9 0 19 -2 22 -5z"/>
<path d="M4050 2366 l-45 -12 3 -60 4 -60 -73 -14 c-75 -14 -84 -21 -142 -97
-28 -37 -37 -42 -72 -43 -22 0 -56 -3 -76 -6 -36 -6 -37 -6 -69 54 -17 33 -45
72 -61 88 -59 56 -47 81 -352 -736 -153 -408 -277 -747 -275 -754 6 -23 483
-665 489 -658 4 4 172 448 373 987 l366 980 0 173 c0 131 -3 172 -12 171 -7
-1 -33 -6 -58 -13z m20 -193 c0 -13 -235 -633 -240 -633 -9 1 -70 89 -70 102
0 7 29 93 66 190 62 166 68 177 95 183 36 8 59 49 59 104 0 36 3 41 28 47 15
3 32 7 37 9 17 6 25 5 25 -2z m-330 -242 c0 -11 2 -25 5 -33 3 -7 -6 -26 -20
-43 -24 -29 -25 -29 -40 -11 -15 20 -21 87 -8 99 3 4 19 7 35 7 21 0 28 -5 28
-19z"/>
<path d="M1396 2295 c-4 -20 -6 -39 -4 -41 2 -1 34 4 71 12 78 18 88 38 25 48
-24 4 -53 9 -64 12 -18 5 -23 0 -28 -31z"/>
<path d="M3708 2312 c-19 -4 -25 -37 -9 -46 12 -8 34 20 29 36 -2 8 -11 12
-20 10z"/>
<path d="M3847 2297 c-7 -12 -12 -28 -10 -34 5 -15 53 -18 53 -4 0 5 2 15 5
23 3 7 -3 18 -14 25 -16 10 -21 9 -34 -10z"/>
<path d="M2856 2162 c-153 -37 -273 -68 -267 -70 10 -3 582 126 590 134 12 12
-71 -5 -323 -64z"/>
<path d="M3652 2185 c-20 -43 -15 -55 21 -55 21 0 41 8 51 19 16 18 16 20 -12
40 -39 27 -46 26 -60 -4z"/>
<path d="M2870 2134 c-102 -24 -245 -58 -318 -75 -73 -17 -131 -34 -128 -36 7
-7 629 137 641 148 13 12 14 13 -195 -37z"/>
<path d="M3243 2134 c-8 -22 16 -35 41 -22 19 10 19 11 1 24 -24 18 -34 18
-42 -2z"/>
<path d="M2750 2074 c-80 -19 -214 -50 -298 -70 -84 -20 -151 -38 -149 -41 7
-6 589 128 602 139 13 12 7 10 -155 -28z"/>
<path d="M935 2066 c-17 -50 -24 -94 -19 -115 6 -24 82 -284 105 -357 l10 -32
172 45 c95 25 173 46 175 48 1 1 -2 15 -8 30 -6 15 -9 29 -8 30 5 4 517 -239
527 -250 5 -5 32 -65 61 -132 l52 -122 61 23 c34 13 110 42 168 65 l107 42
-74 172 c-40 95 -86 188 -102 207 -23 27 -70 54 -208 117 -98 45 -197 85 -219
88 -28 4 -97 -7 -233 -38 -222 -51 -198 -58 -222 65 -16 77 6 66 -203 102 -97
16 -140 20 -142 12z"/>
<path d="M3247 1962 c-15 -16 -15 -19 3 -30 27 -17 30 -15 30 12 0 33 -14 40
-33 18z"/>
<path d="M3038 1913 c-22 -6 -23 -32 -2 -40 16 -6 34 12 34 35 0 12 -3 13 -32
5z"/>
<path d="M2286 1841 c-3 -4 4 -17 16 -27 44 -39 56 -112 26 -151 -5 -7 -8 -20
-6 -30 7 -31 48 46 48 90 0 42 -12 70 -43 105 -22 24 -33 27 -41 13z"/>
<path d="M4112 1823 c-1 -7 -151 -409 -332 -895 -182 -485 -329 -887 -326
-893 3 -10 75 -40 80 -33 2 1 134 355 295 785 l292 782 -4 133 c-1 73 -4 128
-5 121z"/>
<path d="M2230 1792 c0 -4 10 -16 21 -26 18 -15 21 -25 16 -67 -7 -53 7 -66
23 -23 15 39 12 69 -11 98 -19 24 -49 36 -49 18z"/>
<path d="M3074 1745 c-7 -18 3 -35 21 -35 21 0 28 19 15 35 -16 19 -29 19 -36
0z"/>
<path d="M2847 1683 c-24 -6 -17 -38 8 -38 13 0 21 8 23 23 3 22 1 23 -31 15z"/>
<path d="M882 1653 c-20 -18 -20 -18 26 -158 47 -139 47 -140 76 -138 53 4 54
14 2 168 -51 155 -60 166 -104 128z"/>
<path d="M1241 1540 c-80 -21 -155 -41 -167 -44 l-22 -6 32 -106 31 -106 -65
-58 -65 -58 54 -58 c30 -33 86 -92 124 -132 l69 -72 114 101 c63 55 122 112
131 125 24 37 27 104 8 170 -42 148 -87 284 -93 283 -4 0 -72 -18 -151 -39z"/>
<path d="M2195 1205 c-88 -35 -159 -67 -158 -71 7 -37 240 -564 256 -583 27
-29 93 -60 127 -61 84 0 158 55 180 135 11 40 11 54 -2 94 -23 71 -230 551
-237 550 -3 0 -78 -29 -166 -64z"/>
<path d="M708 921 c-228 -201 -238 -213 -238 -299 0 -121 136 -209 247 -159
31 14 448 374 448 387 0 9 -226 258 -235 259 -3 1 -103 -84 -222 -188z"/>
</g>
</svg>
