<?xml version="1.0" standalone="no"?>
<!DOCTYPE svg PUBLIC "-//W3C//DTD SVG 20010904//EN"
 "http://www.w3.org/TR/2001/REC-SVG-20010904/DTD/svg10.dtd">
<svg version="1.0" xmlns="http://www.w3.org/2000/svg"
 width="512.000000pt" height="512.000000pt" viewBox="0 0 512.000000 512.000000"
 preserveAspectRatio="xMidYMid meet">

<g transform="translate(0.000000,512.000000) scale(0.100000,-0.100000)"
fill="#000000" stroke="none">
<path d="M2452 4844 c-77 -38 -105 -84 -122 -201 -6 -43 -18 -78 -35 -103 -19
-27 -28 -56 -32 -97 -5 -55 -3 -60 28 -91 18 -18 45 -40 61 -48 60 -31 63 -81
7 -139 -22 -23 -46 -52 -52 -66 -7 -13 -24 -29 -37 -36 -14 -7 -35 -25 -47
-40 -15 -19 -23 -23 -23 -13 0 9 6 22 13 29 10 11 8 11 -10 2 -12 -6 -24 -15
-28 -20 -3 -5 -28 -17 -55 -26 -40 -13 -61 -30 -105 -81 -72 -86 -89 -116
-186 -336 -45 -104 -87 -188 -93 -188 -7 0 -18 -16 -25 -35 -7 -19 -17 -35
-22 -35 -11 0 -12 -80 0 -98 5 -8 1 -28 -10 -50 -11 -20 -19 -51 -19 -68 0
-32 -2 -33 -57 -44 -99 -19 -103 -20 -103 -33 0 -7 34 -86 76 -177 l76 -164
-36 -73 c-34 -70 -37 -72 -61 -63 -34 13 -61 -1 -69 -35 -9 -35 -2 -43 46 -56
44 -11 108 -70 108 -98 0 -13 2 -14 9 -2 8 12 11 12 25 0 8 -8 22 -20 31 -27
23 -20 14 -46 -17 -50 -21 -3 -27 2 -31 20 -2 13 -3 9 -1 -9 1 -18 -3 -34 -9
-36 -7 -3 0 -8 16 -12 38 -10 34 -20 -15 -34 -100 -30 -221 -119 -283 -208
-15 -21 -14 -23 40 -57 l55 -36 63 63 c64 65 142 110 181 105 19 -3 21 -10 23
-73 2 -38 7 -119 13 -180 6 -60 13 -220 16 -355 3 -135 10 -249 15 -255 5 -5
9 -17 9 -27 0 -23 19 -23 35 -1 9 12 27 18 54 18 52 0 57 25 8 41 -32 9 -33 9
-29 -13 2 -13 0 -23 -6 -23 -13 0 -23 26 -16 45 4 8 1 15 -5 15 -7 0 -11 25
-11 70 0 65 2 72 29 96 28 25 30 32 36 123 3 53 7 149 8 214 1 64 6 117 10
117 5 0 7 34 5 75 -2 41 -6 75 -10 75 -3 0 -8 109 -10 243 l-3 243 -33 63
c-32 61 -33 65 -21 120 6 31 35 131 65 223 30 92 54 176 54 187 0 14 8 21 27
23 31 3 75 60 66 85 -3 8 7 41 22 74 21 44 32 56 41 48 8 -6 9 -19 5 -37 -6
-19 -2 -37 12 -63 13 -22 18 -43 13 -54 -6 -17 -8 -17 -22 4 -23 33 -60 25
-56 -12 3 -21 -5 -35 -37 -64 -26 -23 -43 -48 -47 -70 -8 -43 16 -263 29 -263
9 0 6 48 -9 140 -6 33 -5 34 10 15 11 -15 15 -44 16 -110 0 -49 5 -155 11
-235 6 -80 12 -182 12 -227 1 -50 7 -87 15 -95 17 -17 15 -55 -13 -253 -22
-149 -26 -220 -29 -463 -3 -253 -6 -295 -24 -357 -38 -132 -38 -135 13 -210
50 -76 54 -103 31 -213 -12 -59 -12 -64 7 -73 15 -8 18 -18 13 -42 -3 -18 -10
-62 -17 -100 -9 -55 -20 -79 -60 -133 -49 -67 -58 -98 -38 -136 24 -45 139
-63 205 -32 44 21 72 68 86 143 8 43 16 61 30 64 27 8 36 44 37 158 0 57 5
120 11 139 5 19 10 49 10 67 0 25 8 39 35 60 25 20 35 36 35 56 0 16 5 38 12
50 16 30 17 56 22 318 3 176 7 232 19 255 20 39 69 241 68 281 0 17 9 58 20
90 11 32 25 107 31 167 12 119 21 117 32 -7 4 -43 16 -106 26 -140 11 -34 20
-77 20 -95 0 -38 41 -207 71 -297 18 -52 21 -88 23 -300 1 -209 4 -244 19
-265 9 -13 17 -38 17 -55 0 -22 10 -41 34 -64 39 -38 49 -86 51 -252 1 -114
16 -169 45 -169 13 0 18 -11 23 -54 7 -70 46 -132 95 -153 24 -10 56 -14 96
-11 51 4 63 9 87 36 35 39 36 59 4 103 -54 75 -85 136 -90 179 -3 25 -9 62
-14 82 -6 29 -4 40 10 55 17 17 17 23 3 113 l-15 96 45 68 c54 80 56 96 21
221 -24 85 -25 103 -25 355 0 242 -3 283 -31 484 -27 191 -29 221 -16 230 16
13 24 109 34 428 4 153 9 212 19 225 12 16 13 7 9 -62 -4 -63 -3 -75 5 -55 6
14 14 80 17 147 l6 123 -41 37 c-33 30 -42 46 -42 71 0 27 -4 32 -23 32 -16 0
-28 -9 -38 -27 l-13 -28 -4 32 c-2 18 4 43 13 57 11 16 15 35 11 53 -3 15 -2
34 3 42 7 11 17 -1 40 -47 17 -33 28 -68 25 -76 -10 -25 33 -84 64 -88 22 -3
28 -9 34 -43 4 -22 27 -99 52 -172 37 -110 42 -133 29 -137 -11 -5 -14 -17
-11 -45 3 -35 0 -41 -29 -57 -31 -16 -33 -21 -33 -71 0 -45 -3 -53 -19 -53
-12 0 -20 -9 -23 -25 -3 -14 -1 -25 3 -25 5 0 6 -7 2 -16 -5 -13 -2 -15 14
-10 19 6 20 0 26 -271 4 -163 3 -281 -3 -288 -5 -6 -5 -16 0 -25 6 -8 10 -48
10 -87 l0 -73 -36 0 c-28 0 -35 -3 -32 -17 3 -15 16 -19 70 -21 62 -3 67 -5
65 -25 -2 -52 4 -77 18 -77 16 0 19 24 15 118 -1 35 3 59 13 70 9 11 18 65 26
162 18 219 16 210 61 205 59 -8 169 -44 242 -81 l67 -34 21 29 20 29 -32 20
c-49 30 -103 52 -203 82 -91 28 -115 45 -73 53 l23 4 -23 2 c-35 2 -22 23 26
45 40 19 42 21 42 66 0 25 6 52 12 58 7 7 15 38 18 69 5 52 7 57 35 66 17 4
36 10 43 13 10 3 8 13 -8 41 -44 78 -44 78 -85 53 -40 -25 -43 -23 -70 38 -16
37 -17 47 -6 64 10 16 10 22 1 28 -9 6 -10 50 -5 177 6 147 5 174 -9 201 -12
24 -14 37 -6 51 16 31 12 70 -10 98 -11 14 -20 34 -20 43 0 10 -8 20 -17 22
-12 3 -46 69 -102 196 -80 183 -143 302 -161 302 -4 0 -17 16 -29 36 -16 26
-38 43 -88 65 -36 17 -72 37 -80 45 -20 20 -26 17 -13 -5 12 -24 13 -31 2 -31
-5 0 -14 11 -20 24 -6 14 -27 32 -46 41 -20 10 -36 24 -36 32 0 8 -22 38 -50
67 -27 29 -50 58 -50 64 0 26 24 60 53 77 50 28 85 65 92 96 8 36 -10 105 -40
149 -14 21 -26 59 -30 95 -17 150 -96 224 -236 225 -50 0 -77 -6 -117 -26z
m1052 -2521 c-10 -7 -29 -13 -42 -13 -34 0 -25 29 18 58 l35 24 3 -28 c3 -18
-3 -33 -14 -41z m-1677 -520 c-3 -10 -5 -2 -5 17 0 19 2 27 5 18 2 -10 2 -26
0 -35z m0 -110 c-3 -10 -5 -2 -5 17 0 19 2 27 5 18 2 -10 2 -26 0 -35z m-50
-175 c-2 -24 -4 -7 -4 37 0 44 2 63 4 43 2 -21 2 -57 0 -80z m53 27 c0 -37 -4
-65 -10 -65 -11 0 -14 113 -3 123 12 13 13 7 13 -58z m-53 -257 c-2 -24 -4 -7
-4 37 0 44 2 63 4 43 2 -21 2 -57 0 -80z"/>
</g>
</svg>
